<mxfile host="65bd71144e">
    <diagram id="iVZ-9rOYdARbzuebSKTK" name="Страница 1">
        <mxGraphModel dx="2123" dy="710" grid="1" gridSize="10" guides="1" tooltips="1" connect="1" arrows="1" fold="1" page="1" pageScale="1" pageWidth="827" pageHeight="1169" math="0" shadow="0">
            <root>
                <mxCell id="0"/>
                <mxCell id="1" parent="0"/>
                <mxCell id="2" value="Режим 1: Настройка условий расчета" style="rounded=0;whiteSpace=wrap;html=1;verticalAlign=top;" parent="1" vertex="1">
                    <mxGeometry x="60" y="50" width="360" height="500" as="geometry"/>
                </mxCell>
                <mxCell id="3" value="Заявки на проводку&lt;br&gt;vessels" style="rounded=1;whiteSpace=wrap;html=1;" parent="1" vertex="1">
                    <mxGeometry x="100" y="100" width="120" height="60" as="geometry"/>
                </mxCell>
                <mxCell id="4" value="Ледоколы и их положение&lt;br&gt;icebreakers" style="rounded=1;whiteSpace=wrap;html=1;" parent="1" vertex="1">
                    <mxGeometry x="100" y="170" width="120" height="60" as="geometry"/>
                </mxCell>
                <mxCell id="6" value="Константы" style="rounded=1;whiteSpace=wrap;html=1;dashed=1;" parent="1" vertex="1">
                    <mxGeometry x="100" y="410" width="120" height="60" as="geometry"/>
                </mxCell>
                <mxCell id="7" value="Режим 2: Расчет" style="rounded=0;whiteSpace=wrap;html=1;verticalAlign=top;" parent="1" vertex="1">
                    <mxGeometry x="450" y="50" width="210" height="450" as="geometry"/>
                </mxCell>
                <mxCell id="9" style="edgeStyle=none;html=1;entryX=1;entryY=0.5;entryDx=0;entryDy=0;" parent="1" source="8" target="3" edge="1">
                    <mxGeometry relative="1" as="geometry"/>
                </mxCell>
                <mxCell id="10" style="edgeStyle=none;html=1;entryX=1;entryY=0.5;entryDx=0;entryDy=0;" parent="1" source="8" target="4" edge="1">
                    <mxGeometry relative="1" as="geometry"/>
                </mxCell>
                <mxCell id="12" style="edgeStyle=none;html=1;entryX=1;entryY=0.5;entryDx=0;entryDy=0;" parent="1" source="8" target="6" edge="1">
                    <mxGeometry relative="1" as="geometry"/>
                </mxCell>
                <mxCell id="43" style="edgeStyle=none;html=1;" edge="1" parent="1" source="8" target="41">
                    <mxGeometry relative="1" as="geometry"/>
                </mxCell>
                <mxCell id="8" value="Просмотр&lt;br&gt;Загрузка из шаблона&lt;br&gt;Удаление&lt;br&gt;Редактирование" style="rounded=1;whiteSpace=wrap;html=1;" parent="1" vertex="1">
                    <mxGeometry x="250" y="100" width="150" height="290" as="geometry"/>
                </mxCell>
                <mxCell id="13" value="Выбор и запуск алгоритма" style="rounded=1;whiteSpace=wrap;html=1;" parent="1" vertex="1">
                    <mxGeometry x="250" y="410" width="150" height="60" as="geometry"/>
                </mxCell>
                <mxCell id="14" value="Прогрессбар" style="rounded=1;whiteSpace=wrap;html=1;dashed=1;" parent="1" vertex="1">
                    <mxGeometry x="495" y="240" width="120" height="60" as="geometry"/>
                </mxCell>
                <mxCell id="15" value="Режим 3: Просмотр результатов" style="rounded=0;whiteSpace=wrap;html=1;verticalAlign=top;" parent="1" vertex="1">
                    <mxGeometry x="680" y="50" width="330" height="450" as="geometry"/>
                </mxCell>
                <mxCell id="16" value="Заявки на проводку&lt;br&gt;vessels" style="rounded=1;whiteSpace=wrap;html=1;" parent="1" vertex="1">
                    <mxGeometry x="707" y="100" width="120" height="60" as="geometry"/>
                </mxCell>
                <mxCell id="17" value="Маршрут судна" style="rounded=1;whiteSpace=wrap;html=1;" parent="1" vertex="1">
                    <mxGeometry x="850" y="100" width="120" height="60" as="geometry"/>
                </mxCell>
                <mxCell id="18" value="Маршрут ледокола" style="rounded=1;whiteSpace=wrap;html=1;" parent="1" vertex="1">
                    <mxGeometry x="850" y="170" width="120" height="60" as="geometry"/>
                </mxCell>
                <mxCell id="19" value="Ледокольная проводка (маршруты всех судов)" style="rounded=1;whiteSpace=wrap;html=1;" parent="1" vertex="1">
                    <mxGeometry x="850" y="260" width="120" height="60" as="geometry"/>
                </mxCell>
                <mxCell id="21" value="Гант" style="rounded=1;whiteSpace=wrap;html=1;" parent="1" vertex="1">
                    <mxGeometry x="850" y="340" width="120" height="60" as="geometry"/>
                </mxCell>
                <mxCell id="22" value="Общая оценка" style="rounded=1;whiteSpace=wrap;html=1;" parent="1" vertex="1">
                    <mxGeometry x="880" y="420" width="120" height="60" as="geometry"/>
                </mxCell>
                <mxCell id="23" value="Ледоколы и их положение&lt;br&gt;icebreakers" style="rounded=1;whiteSpace=wrap;html=1;" parent="1" vertex="1">
                    <mxGeometry x="707" y="180" width="120" height="60" as="geometry"/>
                </mxCell>
                <mxCell id="24" value="Режим 3: Просмотр результатов" style="rounded=0;whiteSpace=wrap;html=1;verticalAlign=top;" vertex="1" parent="1">
                    <mxGeometry x="1090" y="10" width="710" height="490" as="geometry"/>
                </mxCell>
                <mxCell id="25" value="список судов" style="rounded=0;whiteSpace=wrap;html=1;verticalAlign=top;" vertex="1" parent="1">
                    <mxGeometry x="1100" y="100" width="190" height="130" as="geometry"/>
                </mxCell>
                <mxCell id="26" value="список ледоколов" style="rounded=0;whiteSpace=wrap;html=1;verticalAlign=top;" vertex="1" parent="1">
                    <mxGeometry x="1100" y="240" width="190" height="130" as="geometry"/>
                </mxCell>
                <mxCell id="27" value="кнопка на первый экран" style="rounded=0;whiteSpace=wrap;html=1;verticalAlign=top;" vertex="1" parent="1">
                    <mxGeometry x="1100" y="380" width="190" height="40" as="geometry"/>
                </mxCell>
                <mxCell id="30" style="edgeStyle=none;html=1;" edge="1" parent="1" source="28" target="29">
                    <mxGeometry relative="1" as="geometry"/>
                </mxCell>
                <mxCell id="28" value="гант" style="rounded=0;whiteSpace=wrap;html=1;verticalAlign=top;" vertex="1" parent="1">
                    <mxGeometry x="1100" y="430" width="190" height="40" as="geometry"/>
                </mxCell>
                <mxCell id="29" value="Гант" style="rounded=0;whiteSpace=wrap;html=1;verticalAlign=top;" vertex="1" parent="1">
                    <mxGeometry x="1090" y="540" width="390" height="240" as="geometry"/>
                </mxCell>
                <mxCell id="31" value="карта с треками" style="rounded=0;whiteSpace=wrap;html=1;verticalAlign=top;" vertex="1" parent="1">
                    <mxGeometry x="1320" y="50" width="440" height="420" as="geometry"/>
                </mxCell>
                <mxCell id="32" value="выбор временного периода" style="rounded=0;whiteSpace=wrap;html=1;verticalAlign=top;" vertex="1" parent="1">
                    <mxGeometry x="1100" y="50" width="190" height="40" as="geometry"/>
                </mxCell>
                <mxCell id="36" style="edgeStyle=none;html=1;" edge="1" parent="1" source="33" target="4">
                    <mxGeometry relative="1" as="geometry"/>
                </mxCell>
                <mxCell id="33" value="get_icebreakers +" style="shape=process;whiteSpace=wrap;html=1;backgroundOutline=1;" vertex="1" parent="1">
                    <mxGeometry x="-120" y="170" width="150" height="60" as="geometry"/>
                </mxCell>
                <mxCell id="38" style="edgeStyle=none;html=1;" edge="1" parent="1" source="37" target="3">
                    <mxGeometry relative="1" as="geometry"/>
                </mxCell>
                <mxCell id="37" value="get_vessels +" style="shape=process;whiteSpace=wrap;html=1;backgroundOutline=1;" vertex="1" parent="1">
                    <mxGeometry x="-120" y="100" width="150" height="60" as="geometry"/>
                </mxCell>
                <mxCell id="49" style="edgeStyle=none;html=1;entryX=0.25;entryY=0.25;entryDx=0;entryDy=0;entryPerimeter=0;" edge="1" parent="1" source="39" target="48">
                    <mxGeometry relative="1" as="geometry"/>
                </mxCell>
                <mxCell id="39" value="get_base_edges +&lt;br&gt;get_base_nodes +" style="shape=process;whiteSpace=wrap;html=1;backgroundOutline=1;" vertex="1" parent="1">
                    <mxGeometry x="-160" y="524" width="150" height="60" as="geometry"/>
                </mxCell>
                <mxCell id="42" style="edgeStyle=none;html=1;" edge="1" parent="1" source="40" target="41">
                    <mxGeometry relative="1" as="geometry"/>
                </mxCell>
                <mxCell id="40" value="get_templates +&lt;br&gt;POST load_template +" style="shape=process;whiteSpace=wrap;html=1;backgroundOutline=1;" vertex="1" parent="1">
                    <mxGeometry x="-120" y="290" width="150" height="60" as="geometry"/>
                </mxCell>
                <mxCell id="41" value="Выбор шаблона исходных данных" style="rounded=1;whiteSpace=wrap;html=1;" vertex="1" parent="1">
                    <mxGeometry x="90" y="290" width="120" height="60" as="geometry"/>
                </mxCell>
                <mxCell id="44" value="Карта" style="rounded=0;whiteSpace=wrap;html=1;verticalAlign=top;" vertex="1" parent="1">
                    <mxGeometry x="-75" y="610" width="630" height="360" as="geometry"/>
                </mxCell>
                <mxCell id="47" style="edgeStyle=none;html=1;" edge="1" parent="1" source="45" target="46">
                    <mxGeometry relative="1" as="geometry">
                        <Array as="points">
                            <mxPoint x="160" y="690"/>
                            <mxPoint x="360" y="820"/>
                        </Array>
                    </mxGeometry>
                </mxCell>
                <mxCell id="45" value="" style="ellipse;whiteSpace=wrap;html=1;aspect=fixed;" vertex="1" parent="1">
                    <mxGeometry x="30" y="770" width="80" height="80" as="geometry"/>
                </mxCell>
                <mxCell id="46" value="" style="rhombus;whiteSpace=wrap;html=1;" vertex="1" parent="1">
                    <mxGeometry x="414" y="660" width="80" height="80" as="geometry"/>
                </mxCell>
                <mxCell id="48" value="весь граф серым" style="ellipse;shape=cloud;whiteSpace=wrap;html=1;" vertex="1" parent="1">
                    <mxGeometry x="-40" y="620" width="120" height="80" as="geometry"/>
                </mxCell>
                <mxCell id="50" value="get_path ?" style="shape=process;whiteSpace=wrap;html=1;backgroundOutline=1;" vertex="1" parent="1">
                    <mxGeometry x="-170" y="750" width="150" height="60" as="geometry"/>
                </mxCell>
                <mxCell id="53" style="edgeStyle=none;html=1;" edge="1" parent="1" source="52" target="13">
                    <mxGeometry relative="1" as="geometry"/>
                </mxCell>
                <mxCell id="52" value="get_alg +&lt;br&gt;POST alg +" style="shape=process;whiteSpace=wrap;html=1;backgroundOutline=1;" vertex="1" parent="1">
                    <mxGeometry x="180" y="510" width="150" height="60" as="geometry"/>
                </mxCell>
                <mxCell id="55" style="edgeStyle=none;html=1;" edge="1" parent="1" source="54" target="14">
                    <mxGeometry relative="1" as="geometry"/>
                </mxCell>
                <mxCell id="54" value="get alg_status" style="shape=process;whiteSpace=wrap;html=1;backgroundOutline=1;" vertex="1" parent="1">
                    <mxGeometry x="450" y="510" width="150" height="60" as="geometry"/>
                </mxCell>
                <mxCell id="58" value="get&amp;nbsp;&lt;span style=&quot;font-family: Menlo, Monaco, &amp;quot;Courier New&amp;quot;, monospace; text-align: left; background-color: rgb(255, 255, 255);&quot;&gt;VesselPaths&lt;/span&gt;" style="shape=process;whiteSpace=wrap;html=1;backgroundOutline=1;" vertex="1" parent="1">
                    <mxGeometry x="670" y="534" width="150" height="60" as="geometry"/>
                </mxCell>
                <mxCell id="59" value="get&amp;nbsp;&lt;span style=&quot;font-family: Menlo, Monaco, &amp;quot;Courier New&amp;quot;, monospace; text-align: left; background-color: rgb(255, 255, 255);&quot;&gt;Icebreaker Paths&lt;/span&gt;" style="shape=process;whiteSpace=wrap;html=1;backgroundOutline=1;" vertex="1" parent="1">
                    <mxGeometry x="670" y="600" width="150" height="60" as="geometry"/>
                </mxCell>
                <mxCell id="60" value="Ледовая обстановка" style="rounded=1;whiteSpace=wrap;html=1;" vertex="1" parent="1">
                    <mxGeometry x="707" y="350" width="120" height="60" as="geometry"/>
                </mxCell>
                <mxCell id="62" style="edgeStyle=none;html=1;" edge="1" parent="1" source="61" target="60">
                    <mxGeometry relative="1" as="geometry"/>
                </mxCell>
                <mxCell id="61" value="&lt;div style=&quot;text-align: left;&quot;&gt;&lt;span style=&quot;background-color: initial;&quot;&gt;get &lt;/span&gt;&lt;font face=&quot;Menlo, Monaco, Courier New, monospace&quot;&gt;&lt;span style=&quot;background-color: rgb(255, 255, 255);&quot;&gt;icecondition_tif&lt;/span&gt;&lt;/font&gt;&lt;/div&gt;" style="shape=process;whiteSpace=wrap;html=1;backgroundOutline=1;" vertex="1" parent="1">
                    <mxGeometry x="840" y="534" width="150" height="60" as="geometry"/>
                </mxCell>
                <mxCell id="64" style="edgeStyle=none;html=1;" edge="1" parent="1" source="63" target="22">
                    <mxGeometry relative="1" as="geometry"/>
                </mxCell>
                <mxCell id="63" value="&lt;div style=&quot;text-align: left;&quot;&gt;&lt;span style=&quot;background-color: initial;&quot;&gt;get &lt;/span&gt;&lt;font face=&quot;Menlo, Monaco, Courier New, monospace&quot;&gt;&lt;span style=&quot;background-color: rgb(255, 255, 255);&quot;&gt;grade&lt;/span&gt;&lt;/font&gt;&lt;/div&gt;" style="shape=process;whiteSpace=wrap;html=1;backgroundOutline=1;" vertex="1" parent="1">
                    <mxGeometry x="910" y="600" width="150" height="60" as="geometry"/>
                </mxCell>
                <mxCell id="65" value="оценка получившегося решения&lt;br&gt;сколько застряло, суммарное время в часах" style="rounded=0;whiteSpace=wrap;html=1;verticalAlign=top;" vertex="1" parent="1">
                    <mxGeometry x="1370" y="100" width="190" height="60" as="geometry"/>
                </mxCell>
            </root>
        </mxGraphModel>
    </diagram>
</mxfile>